<?xml version="1.0" encoding="UTF-8" standalone="no"?>
<!-- Created with Inkscape (http://www.inkscape.org/) -->

<svg
   width="200"
   height="50"
   viewBox="0 0 52.916668 13.229166"
   version="1.1"
   id="svg1"
   inkscape:version="1.3.2 (091e20e, 2023-11-25, custom)"
   xmlns:inkscape="http://www.inkscape.org/namespaces/inkscape"
   xmlns:sodipodi="http://sodipodi.sourceforge.net/DTD/sodipodi-0.dtd"
   xmlns="http://www.w3.org/2000/svg"
   xmlns:svg="http://www.w3.org/2000/svg">
  <sodipodi:namedview
     id="namedview1"
     pagecolor="#505050"
     bordercolor="#ffffff"
     borderopacity="1"
     inkscape:showpageshadow="0"
     inkscape:pageopacity="0"
     inkscape:pagecheckerboard="1"
     inkscape:deskcolor="#505050"
     inkscape:document-units="mm"
     inkscape:zoom="2.8008417"
     inkscape:cx="100.32698"
     inkscape:cy="28.205806"
     inkscape:window-width="1920"
     inkscape:window-height="1047"
     inkscape:window-x="-9"
     inkscape:window-y="-9"
     inkscape:window-maximized="1"
     inkscape:current-layer="layer1" />
  <defs
     id="defs1" />
  <g
     inkscape:label="Layer 1"
     inkscape:groupmode="layer"
     id="layer1">
    <path
       style="font-size:5.17017px;font-family:Mazzard;-inkscape-font-specification:Mazzard;text-align:center;text-anchor:middle;fill:#ffffff;stroke-width:0.744501"
       d="M 2.7238959,5.0447753 H 1.3693114 V 4.6104811 H 4.5437957 V 5.0447753 H 3.1892112 V 8.2296 H 2.7238959 Z M 7.2271077,7.0352907 H 4.9160418 q 0.046531,0.3619119 0.3205505,0.6049099 0.2688489,0.2378278 0.6617818,0.2378278 0.5118468,0 0.7962061,-0.3877627 L 7.1185341,7.6246901 Q 6.932408,7.9349003 6.6066873,8.110686 6.2861368,8.2864718 5.8983741,8.2864718 5.288294,8.2864718 4.8746804,7.8883687 4.466237,7.4850955 4.466237,6.8853558 q 0,-0.5997397 0.3981031,-0.9978428 0.3981031,-0.4032732 0.9875024,-0.4032732 0.5945696,0 0.9875025,0.4032732 0.3981031,0.3981031 0.3981031,0.9978428 0,0.01551 -0.01034,0.1499349 z M 4.921212,6.6837192 H 6.7876433 Q 6.7256012,6.3373178 6.4619226,6.1098303 6.2034141,5.887513 5.8415022,5.887513 q -0.3515716,0 -0.6049099,0.2223173 Q 4.983254,6.3321476 4.921212,6.6837192 Z M 9.5123163,8.2296 8.7264504,7.2007362 7.9354145,8.2296 H 7.4183975 L 8.467942,6.8543348 7.464929,5.5411116 H 7.981946 L 8.7264504,6.5079334 9.4657847,5.5411116 h 0.517017 L 8.9849589,6.8543348 10.029333,8.2296 Z M 11.544195,5.4842398 q 0.604909,0 0.982332,0.4394644 V 5.5411116 h 0.434294 V 8.2296 H 12.526527 V 7.8470074 q -0.377423,0.4394644 -0.982332,0.4394644 -0.563549,0 -0.946142,-0.3981031 -0.377422,-0.398103 -0.377422,-1.0030129 0,-0.6049099 0.377422,-0.9978428 0.377423,-0.4032732 0.946142,-0.4032732 z m 0.04653,0.4342942 q -0.387763,0 -0.656611,0.2791892 -0.263679,0.274019 -0.263679,0.6876326 0,0.4136136 0.263679,0.6928028 0.274019,0.274019 0.656611,0.274019 0.392933,0 0.656612,-0.274019 0.268848,-0.274019 0.268848,-0.6928028 0,-0.4187838 -0.268848,-0.6876326 Q 11.983659,5.918534 11.590726,5.918534 Z m 3.929331,0.2068068 -0.408443,0.072382 q -0.04136,-0.1551051 -0.196467,-0.242998 -0.149935,-0.087893 -0.382592,-0.087893 -0.222318,0 -0.372252,0.098233 -0.144765,0.098233 -0.144765,0.2533383 0,0.2171471 0.284359,0.3153803 l 0.656612,0.2326577 q 0.61525,0.2274875 0.61525,0.7341641 0,0.3670821 -0.279189,0.579059 -0.279189,0.2068068 -0.728994,0.2068068 -0.429124,0 -0.708313,-0.1861261 -0.274019,-0.1912963 -0.330891,-0.517017 l 0.408443,-0.072382 q 0.04136,0.1757858 0.211977,0.2843594 0.175786,0.1085736 0.429124,0.1085736 0.248168,0 0.413614,-0.1085736 0.170615,-0.1085736 0.170615,-0.2791892 0,-0.242998 -0.356741,-0.367082 L 14.160303,6.9267172 q -0.563549,-0.1912963 -0.563549,-0.6772923 0,-0.3619119 0.263679,-0.5635485 0.268849,-0.2016366 0.703143,-0.2016366 0.387763,0 0.641101,0.1757857 0.258508,0.1706157 0.31538,0.4653153 z M 18.079288,8.2296 H 17.613973 V 4.6104811 h 0.465315 v 1.5717316 h 2.145621 V 4.6104811 h 0.470485 V 8.2296 H 20.224909 V 6.616507 h -2.145621 z m 3.820761,0 H 21.465754 V 5.5411116 h 0.434295 z M 21.465754,5.1016472 q -0.08272,-0.087893 -0.08272,-0.2171471 0,-0.1292543 0.08272,-0.211977 0.08789,-0.087893 0.217148,-0.087893 0.129254,0 0.217147,0.087893 0.08789,0.082723 0.08789,0.211977 0,0.1292542 -0.08789,0.2171471 -0.08789,0.082723 -0.217147,0.082723 -0.129255,0 -0.217148,-0.082723 z m 2.352426,0.3825926 q 0.60491,0 0.982333,0.4394644 V 4.3519726 h 0.434294 V 8.2296 H 24.800513 V 7.8470074 q -0.377423,0.4394644 -0.982333,0.4394644 -0.563548,0 -0.946141,-0.3981031 -0.377422,-0.398103 -0.377422,-1.0030129 0,-0.6049099 0.377422,-0.9978428 0.377423,-0.4032732 0.946141,-0.4032732 z m 0.04653,0.4342942 q -0.387763,0 -0.656612,0.2791892 -0.263678,0.274019 -0.263678,0.6876326 0,0.4136136 0.263678,0.6928028 0.274019,0.274019 0.656612,0.274019 0.392933,0 0.656612,-0.274019 0.268848,-0.274019 0.268848,-0.6928028 0,-0.4187838 -0.268848,-0.6876326 Q 24.257645,5.918534 23.864712,5.918534 Z m 3.288229,-0.4342942 q 0.60491,0 0.982332,0.4394644 V 4.3519726 h 0.434295 V 8.2296 H 28.135273 V 7.8470074 q -0.377422,0.4394644 -0.982332,0.4394644 -0.563548,0 -0.946141,-0.3981031 -0.377422,-0.398103 -0.377422,-1.0030129 0,-0.6049099 0.377422,-0.9978428 0.377422,-0.4032732 0.946141,-0.4032732 z m 0.04653,0.4342942 q -0.387763,0 -0.656612,0.2791892 -0.263679,0.274019 -0.263679,0.6876326 0,0.4136136 0.263679,0.6928028 0.274019,0.274019 0.656612,0.274019 0.392933,0 0.656611,-0.274019 0.268849,-0.274019 0.268849,-0.6928028 0,-0.4187838 -0.268849,-0.6876326 Q 27.592406,5.918534 27.199473,5.918534 Z m 4.725538,1.1167567 h -2.311066 q 0.04653,0.3619119 0.32055,0.6049099 0.268849,0.2378278 0.661782,0.2378278 0.511847,0 0.796206,-0.3877627 l 0.423954,0.1344244 q -0.186126,0.3102102 -0.511847,0.4859959 -0.32055,0.1757858 -0.708313,0.1757858 -0.61008,0 -1.023693,-0.3981031 -0.408444,-0.4032732 -0.408444,-1.0030129 0,-0.5997397 0.398103,-0.9978428 0.398103,-0.4032732 0.987503,-0.4032732 0.594569,0 0.987502,0.4032732 0.398103,0.3981031 0.398103,0.9978428 0,0.01551 -0.01034,0.1499349 z M 29.619115,6.6837192 h 1.866431 Q 31.423504,6.3373178 31.159826,6.1098303 30.901317,5.887513 30.539405,5.887513 q -0.351571,0 -0.60491,0.2223173 -0.253338,0.2223173 -0.31538,0.5738889 z M 32.488555,8.2296 V 5.5411116 h 0.434294 v 0.4498048 q 0.320551,-0.5066766 0.956482,-0.5066766 0.465315,0 0.770355,0.30504 0.31021,0.2998698 0.31021,0.7651851 V 8.2296 H 34.525602 V 6.6682087 q 0,-0.3257207 -0.222317,-0.548038 -0.217148,-0.2223173 -0.542868,-0.2223173 -0.351572,0 -0.59457,0.2274874 -0.242998,0.2274875 -0.242998,0.5532082 V 8.2296 Z m 4.508388,-1.8095595 q 0,-0.7962061 0.542868,-1.3339038 0.537698,-0.5325275 1.354584,-0.5325275 0.537698,0 0.971992,0.2533383 0.439465,0.2481682 0.687633,0.6876326 L 40.099045,5.6651957 Q 39.912919,5.3549855 39.592368,5.1791998 39.276988,5.003414 38.894395,5.003414 q -0.599739,0 -1.008183,0.4084434 -0.408443,0.4032732 -0.408443,1.0081831 0,0.6049099 0.392933,1.0133533 0.392933,0.4032732 0.966822,0.4032732 0.491166,0 0.873758,-0.30504 0.382593,-0.3102102 0.465316,-0.791036 H 38.73929 V 6.3062968 h 1.959495 q 0.01034,0.1240841 0.01034,0.1551051 -0.01551,0.7806956 -0.548038,1.3028828 -0.537698,0.5221871 -1.308053,0.5221871 -0.791036,0 -1.323563,-0.5325275 -0.532528,-0.5325275 -0.532528,-1.3339038 z m 6.959051,0.6152502 h -2.311066 q 0.04653,0.3619119 0.32055,0.6049099 0.268849,0.2378278 0.661782,0.2378278 0.511847,0 0.796206,-0.3877627 l 0.423954,0.1344244 q -0.186126,0.3102102 -0.511847,0.4859959 -0.32055,0.1757858 -0.708313,0.1757858 -0.61008,0 -1.023693,-0.3981031 -0.408444,-0.4032732 -0.408444,-1.0030129 0,-0.5997397 0.398103,-0.9978428 0.398103,-0.4032732 0.987503,-0.4032732 0.594569,0 0.987502,0.4032732 0.398103,0.3981031 0.398103,0.9978428 0,0.01551 -0.01034,0.1499349 z M 41.650098,6.6837192 h 1.866431 Q 43.454487,6.3373178 43.190809,6.1098303 42.9323,5.887513 42.570388,5.887513 q -0.351571,0 -0.60491,0.2223173 -0.253338,0.2223173 -0.31538,0.5738889 z M 44.51954,8.2296 V 5.5411116 h 0.434294 v 0.3929329 q 0.30504,-0.4498047 0.884099,-0.4498047 0.28953,0 0.527357,0.1395946 0.242998,0.1395945 0.372253,0.3774224 0.08789,-0.1551051 0.274019,-0.3102102 0.248168,-0.2068068 0.677292,-0.2068068 0.454975,0 0.754845,0.2843593 0.29987,0.2843594 0.29987,0.7134835 V 8.2296 H 48.309274 V 6.6009965 q 0,-0.2998699 -0.196466,-0.5015065 -0.196467,-0.2016366 -0.496336,-0.2016366 -0.325721,0 -0.548038,0.2068068 -0.217148,0.2016366 -0.217148,0.5015064 V 8.2296 H 46.416992 V 6.6009965 q 0,-0.2998699 -0.201636,-0.5015065 -0.196467,-0.2016366 -0.496337,-0.2016366 -0.32572,0 -0.548038,0.2068068 -0.217147,0.2016366 -0.217147,0.5015064 V 8.2296 Z m 6.778092,-2.1042592 -0.408444,0.072382 q -0.04136,-0.1551051 -0.196466,-0.242998 -0.149935,-0.087893 -0.382593,-0.087893 -0.222317,0 -0.372252,0.098233 -0.144765,0.098233 -0.144765,0.2533383 0,0.2171471 0.28436,0.3153803 l 0.656611,0.2326577 q 0.61525,0.2274875 0.61525,0.7341641 0,0.3670821 -0.279189,0.579059 -0.279189,0.2068068 -0.728994,0.2068068 -0.429124,0 -0.708313,-0.1861261 -0.274019,-0.1912963 -0.330891,-0.517017 l 0.408444,-0.072382 q 0.04136,0.1757858 0.211977,0.2843594 0.175785,0.1085736 0.429124,0.1085736 0.248168,0 0.413613,-0.1085736 0.170616,-0.1085736 0.170616,-0.2791892 0,-0.242998 -0.356742,-0.367082 L 49.937877,6.9267172 q -0.563548,-0.1912963 -0.563548,-0.6772923 0,-0.3619119 0.263678,-0.5635485 0.268849,-0.2016366 0.703143,-0.2016366 0.387763,0 0.641101,0.1757857 0.258509,0.1706157 0.315381,0.4653153 z"
       id="text1"
       aria-label="Texas Hidden Gems" />
  </g>
</svg>
